<svg width="236" height="635" viewBox="0 0 236 635" fill="none" xmlns="http://www.w3.org/2000/svg">
<g style="mix-blend-mode:darken">
<path d="M32.9439 483.489C29.8667 472.671 17.7776 472.401 14.9202 483.489C9.64497 504.043 9.64508 526.22 10.0847 547.586C10.7441 574.631 7.66681 602.757 9.20542 629.532C10.5242 650.627 31.8449 653.061 37.9993 634.4C51.627 593.021 44.5934 525.138 32.9439 483.489Z" fill="#CFBDA2"/>
<path d="M226.149 446.708C196.916 438.865 168.561 428.588 146.142 402.896C122.403 375.58 120.864 339.34 113.611 303.1C108.556 277.948 92.5101 265.237 71.629 270.916C28.548 282.275 -9.03809 275.244 -50.8003 259.287C-62.0102 254.96 -69.0439 267.941 -67.5053 279.03C-74.7588 313.106 -101.135 345.019 -121.357 367.467C-147.733 397.216 -185.319 401.543 -211.036 430.482C-218.289 438.595 -215.212 456.715 -204.881 458.879C-173.889 465.64 -142.457 459.42 -112.345 448.061C-118.06 457.256 -123.335 467.263 -127.071 478.351C-135.424 502.962 -125.972 526.221 -103.773 528.925C-83.7706 531.359 -62.4498 508.912 -48.1627 495.119C-43.1073 490.521 -38.4915 485.383 -33.6559 480.244C-30.5786 502.151 -24.644 523.246 -12.9945 541.366C-1.34502 559.486 17.5579 568.952 33.1638 552.725C45.4727 539.743 47.8905 514.321 49.6489 495.66C69.2112 531.63 99.3239 562.461 130.096 550.561C152.076 542.177 150.538 510.805 143.944 489.439C174.716 499.987 206.367 500.528 230.765 476.728C234.062 473.483 235.601 469.697 235.601 465.91C237.139 457.797 234.282 448.872 226.149 446.708Z" fill="#F5E6D0"/>
<path d="M184.827 292.822C134.492 292.011 111.413 222.235 91.4113 173.013C92.0707 163.818 87.8945 154.352 78.2233 154.893C78.0034 154.893 78.0034 154.893 77.7836 154.893C76.245 154.623 74.7063 154.893 73.1677 155.434C56.0232 157.327 39.7579 163.277 22.6134 164.9C6.12833 166.252 -10.3568 167.063 -26.4022 172.743C-33.4359 175.177 -39.8102 180.315 -44.426 187.077C-47.5032 187.888 -50.3605 190.322 -52.5585 194.379C-76.5169 239.003 -111.026 271.457 -155.426 274.432C-157.404 274.432 -158.942 275.243 -160.481 276.055C-172.57 275.514 -180.922 298.231 -167.954 307.968C-145.754 324.465 -120.697 330.956 -95.2 329.604C-95.4198 351.78 -85.5288 371.253 -64.4278 378.014C-37.6121 386.398 -17.3904 352.051 -3.98248 326.899C7.66698 338.799 14.9204 356.919 27.0094 368.278C39.0985 379.637 56.2431 385.316 70.5302 376.121C86.1361 365.844 86.136 341.503 82.839 319.056C115.809 342.585 158.67 358.001 190.542 330.144C193.619 327.44 195.377 323.924 196.037 320.138C201.092 309.861 197.575 293.093 184.827 292.822ZM55.1441 346.642C52.9461 347.183 50.5282 346.642 48.3302 345.29C51.1876 344.749 54.045 343.126 56.0232 340.692C56.0232 341.503 56.0232 342.044 56.0232 342.856C56.0232 345.019 55.5837 346.371 55.1441 346.642Z" fill="#ECDCC6"/>
<path d="M148.339 151.919C118.227 141.912 85.916 114.597 62.3972 89.7154C43.2745 69.4317 36.2409 35.8959 26.5696 8.31009C21.9538 -4.94193 3.27069 -1.42609 1.29248 12.3668C-7.49957 71.3248 -59.1529 161.114 -114.103 153.271C-119.159 152.46 -122.676 154.894 -124.654 158.41C-132.347 163.548 -136.523 175.718 -127.951 184.102C-98.4974 212.499 -56.7351 209.524 -22.8857 193.568C-12.9946 216.827 9.20534 230.349 30.9657 226.833C49.429 223.858 61.2982 210.065 63.4962 192.486C85.916 202.222 111.413 200.329 132.734 187.348C134.712 186.536 136.69 185.725 138.668 184.914C138.888 184.643 139.328 184.643 139.547 184.373C139.987 184.643 140.427 184.643 141.086 184.914C158.231 190.593 165.704 157.598 148.339 151.919Z" fill="#F5E6D0"/>
</g>
</svg>
