<svg width="222" height="527" viewBox="0 0 222 527" fill="none" xmlns="http://www.w3.org/2000/svg">
<g style="mix-blend-mode:darken">
<path d="M150.472 100.729C156.386 69.4045 175.662 42.4613 201.51 26.9088C221.006 6.31806 248.825 -5.29159 275.549 2.37516C278.397 2.15611 281.464 2.37515 284.968 3.68945C342.14 23.8421 370.617 87.8047 362.731 144.977C354.188 207.187 289.788 229.749 235.244 220.768C180.92 211.568 140.395 155.053 150.472 100.729Z" fill="#F5E6D0"/>
<path d="M0.203506 247.931C3.7083 195.358 57.8137 161.187 107.319 165.787C108.195 165.787 108.852 166.006 109.729 166.006C113.89 163.815 119.148 163.158 125.281 164.911C165.805 177.615 191.872 210.473 180.482 253.626C169.748 293.931 128.348 319.998 89.357 325.474C38.9755 332.703 -3.3013 300.283 0.203506 247.931Z" fill="#F5E6D0"/>
<path d="M114.986 263.045C127.252 266.112 139.519 273.121 151.567 277.722C165.148 282.979 178.072 289.55 189.901 298.312C191.434 299.408 192.748 300.722 194.063 301.817C193.844 300.722 193.844 299.846 193.625 298.75C190.777 272.026 199.539 243.112 206.549 217.702C212.244 197.33 221.225 172.578 235.901 157.025C236.339 156.587 237.215 157.025 236.996 157.682C217.501 207.187 208.301 270.274 218.596 322.846C230.644 384.837 243.568 448.581 236.996 511.886C235.025 532.039 202.825 532.039 205.234 511.886C209.615 475.743 209.396 438.066 208.739 401.485C208.301 380.018 203.92 358.989 199.977 337.96C199.101 336.208 198.225 334.456 197.129 332.703C189.682 320.655 177.196 312.331 164.929 305.76C147.186 296.122 119.805 288.455 109.509 270.055C107.538 266.55 110.824 262.169 114.986 263.045Z" fill="#CFBDA2"/>
</g>
</svg>
