<svg width="320" height="459" viewBox="0 0 320 459" fill="none" xmlns="http://www.w3.org/2000/svg">
<path d="M234.806 198.777C222.846 186.088 199.714 182.081 186.054 170C175.733 190.642 179.619 219.115 189.09 236.782C200.929 258.82 218.657 266.105 234.442 265.559C248.527 265.073 253.566 241.275 251.502 231.318C249.013 218.994 243.367 207.823 234.806 198.777Z" fill="#F5E6D0"/>
<path d="M176 326.869C189.253 327.903 196.542 321.216 206.361 314.529C218.89 306.019 234.854 303.04 249.673 305.958C257.444 307.478 264.552 311.551 270.275 317.022C273.166 319.818 275.756 322.918 277.865 326.322C280.395 330.395 282.503 332.219 278.588 334.65C271.479 339.088 262.323 341.884 254.793 345.835C246.842 350.03 238.649 354.042 229.734 355.44C219.433 357.02 208.65 354.771 199.674 349.543C190.518 344.255 180.94 336.231 176 326.869Z" fill="#F5E6D0"/>
<path d="M351.566 286.538C345.919 298.541 336.608 301.618 325.915 306.865C312.399 313.561 302.007 326.047 297.141 340.282C294.618 347.761 294.618 355.965 296.48 363.625C297.982 369.717 299.904 375.629 303.509 380.816C318.707 370.381 337.93 362.057 349.584 347.279C356.071 339.136 359.435 328.64 359.315 318.266C359.315 307.77 357.153 295.465 351.566 286.538Z" fill="#F5E6D0"/>
<path d="M257.701 267.996C261.388 256.999 268.34 246.551 275.836 237.937C284.239 228.161 293.306 220.524 296.45 209.283C305.578 226.023 315.129 244.779 311.32 263.108C309.023 274.167 302.132 283.392 294.515 291.396C286.898 299.338 278.435 306.486 271.907 315.345C260.603 301.049 251.958 285.103 257.701 267.996Z" fill="#F5E6D0"/>
<path d="M274.356 375.721C262.913 374.936 250.746 377.472 240.086 381.094C227.98 385.198 217.56 390.631 206.117 389.303C217.922 404.093 231.353 419.908 249.542 423.349C260.503 425.401 271.525 422.504 281.704 418.52C291.822 414.536 301.579 409.405 312.18 406.688C303.386 390.933 292.124 376.928 274.356 375.721Z" fill="#F5E6D0"/>
<path d="M193.022 188.877C201.994 212.593 215.362 234.373 229.512 255.246C243.602 276.18 258.535 296.568 271.12 318.288C283.524 340.069 293.82 363.059 301.949 386.836C310.138 410.552 316.34 434.995 320.073 459.74C320.254 461.192 321.579 462.16 323.024 461.978C324.469 461.797 325.432 460.466 325.252 459.014C321.699 433.785 315.377 409.04 306.947 385.081C298.396 361.183 287.859 337.891 274.793 316.11C261.666 294.33 246.312 274.243 231.86 253.673C217.469 233.042 203.56 211.867 193.926 188.574L193.323 188.332L193.022 188.877Z" fill="#F5E6D0"/>
<path d="M272.021 311.579C269.38 304.964 269.073 297.56 270.424 290.46C271.775 283.36 274.294 276.259 277.795 269.827C281.296 263.333 285.718 257.264 289.464 250.71C293.211 244.217 296.282 236.995 296.466 229.409L296.036 228.924L295.545 229.349C295.115 236.752 291.983 243.61 288.052 249.921C284.182 256.233 279.576 262.18 275.768 268.734C273.864 272.011 272.144 275.47 270.793 278.99C269.441 282.51 268.213 286.151 267.476 289.914C266.678 293.676 266.248 297.5 266.37 301.383C266.493 305.267 267.23 309.151 268.582 312.853C268.889 313.763 269.933 314.249 270.854 313.946C271.898 313.521 272.39 312.55 272.021 311.579Z" fill="#F5E6D0"/>
<path d="M279.781 330.267C272.899 327.187 265.534 325.618 258.169 324.92C250.805 324.223 243.38 324.455 236.075 325.327C232.453 325.792 228.831 326.489 225.209 327.361C221.648 328.291 218.207 329.395 214.766 330.441C207.884 332.475 200.761 334.509 193.698 333.405C193.396 333.347 193.094 333.579 193.034 333.87C192.974 334.16 193.155 334.451 193.457 334.509C200.882 335.904 208.307 333.986 215.249 332.068C218.75 331.138 222.251 330.034 225.692 329.279C229.194 328.523 232.755 327.942 236.317 327.594C243.44 326.896 250.684 326.896 257.807 327.768C264.87 328.581 271.933 330.325 278.151 333.347H278.211C279.056 333.753 280.143 333.405 280.565 332.591C280.988 331.72 280.686 330.732 279.781 330.267Z" fill="#F5E6D0"/>
<path d="M302.531 377.73C302.469 373.932 302.838 370.134 303.7 366.398C304.623 362.662 305.853 359.048 307.576 355.556C309.237 352.065 311.206 348.696 313.482 345.511C315.697 342.325 318.158 339.263 320.866 336.384C323.511 333.444 326.341 330.81 329.356 328.176C332.248 325.542 335.57 323.398 338.585 320.703C341.6 318.069 344.307 315.006 346.399 311.515C348.491 308.085 349.783 304.103 350.152 300.122L349.722 299.632L349.229 300.061C348.737 303.92 347.384 307.656 345.292 310.902C343.2 314.21 340.493 317.028 337.539 319.539C334.586 322.051 331.141 324.194 328.126 326.767C325.049 329.34 322.035 331.974 319.266 334.853C316.436 337.731 313.852 340.733 311.452 343.979C308.991 347.164 306.899 350.656 305.053 354.209C303.146 357.823 301.792 361.62 300.685 365.54C299.639 369.522 299.147 373.626 299.085 377.73C299.085 378.71 299.885 379.506 300.869 379.506C301.854 379.506 302.654 378.71 302.654 377.73V377.669V377.73H302.531Z" fill="#F5E6D0"/>
<path d="M311.228 403.615C303.885 399.398 295.935 396.566 287.864 394.741C283.798 393.859 279.671 393.23 275.545 392.978C271.357 392.664 267.231 393.104 263.165 393.356C259.099 393.608 254.972 393.985 250.906 394.741C246.84 395.496 242.895 396.44 238.89 397.006C234.885 397.636 230.879 397.95 226.935 397.321C222.99 396.755 219.228 395.118 216.011 392.601L215.283 392.726L215.344 393.482C218.621 396.125 222.565 398.013 226.692 398.706C230.819 399.461 235.006 399.209 239.133 398.706C243.199 398.202 247.265 397.384 251.27 396.692C255.275 396.062 259.281 395.81 263.347 395.685C267.473 395.559 271.479 395.244 275.423 395.622C279.429 395.936 283.373 396.629 287.318 397.636C295.086 399.587 302.732 402.608 309.59 406.762C310.44 407.265 311.532 406.95 312.017 406.132C312.382 405.314 312.139 404.181 311.228 403.615Z" fill="#F5E6D0"/>
<path d="M209.329 221.004L209.574 220.629C210.495 211.256 210.065 201.82 208.285 192.635L207.794 192.26L207.426 192.822C209.206 201.945 209.636 211.319 208.715 220.567L209.083 221.067L209.329 221.004Z" fill="#F5E6D0"/>
<path d="M216.35 234.094L216.592 233.823L216.289 233.215C208.117 230.715 200.066 227.538 192.318 223.686L191.713 223.956L191.955 224.632C199.764 228.484 207.815 231.661 216.047 234.161L216.35 234.094Z" fill="#F5E6D0"/>
<path d="M229.129 253.74L229.403 253.493C233.028 241.788 236.585 229.401 237.542 217.634L237.064 217.139L236.516 217.572C235.559 229.277 232.002 241.602 228.377 253.245L228.719 253.802L229.129 253.74Z" fill="#F5E6D0"/>
<path d="M229.45 253.802L229.687 253.442L229.273 252.962C221.822 252.481 212.36 250.439 202.721 247.255L202.189 247.556L202.484 248.096C212.242 251.28 221.703 253.322 229.273 253.802H229.45Z" fill="#F5E6D0"/>
<path d="M289.622 254.085C295.767 250.704 300.708 247.323 304.323 243.942V243.327H303.72C299.382 247.384 292.996 251.503 284.862 255.622L284.682 256.237L285.284 256.421C286.73 255.622 288.176 254.884 289.622 254.085Z" fill="#F5E6D0"/>
<path d="M308.074 253.297L308.251 252.679L307.662 252.493C298.762 257.377 287.8 262.446 278.37 266.093L278.134 266.649L278.665 266.897C288.154 263.249 299.116 258.18 308.074 253.297Z" fill="#F5E6D0"/>
<path d="M271.409 279.991L271.587 279.411C267.6 272.745 266.35 262.311 265.933 258.137L265.457 257.731L265.04 258.195C265.397 262.426 266.766 273.035 270.814 279.817L271.409 279.991Z" fill="#F5E6D0"/>
<path d="M253.133 325.82L253.194 325.76L253.255 325.156C248.559 319.112 239.287 312.827 234.224 310.107L233.614 310.289L233.797 310.893C238.616 313.492 247.949 319.777 252.523 325.7L253.133 325.82Z" fill="#F5E6D0"/>
<path d="M242.664 324.511L242.78 324.392L242.722 323.797C235.98 317.607 229.471 313.5 221.043 310.107L220.52 310.346L220.753 310.881C229.18 314.274 235.399 318.202 242.199 324.392L242.664 324.511Z" fill="#F5E6D0"/>
<path d="M283.248 395.219L283.372 395.159V394.551C276.672 387.927 268.296 383.186 259.051 380.816L258.493 381.12L258.803 381.667C267.862 384.037 276.113 388.717 282.69 395.159L283.248 395.219Z" fill="#F5E6D0"/>
<path d="M248.193 409.676C255.272 405.894 261.862 401.197 267.659 395.83V395.22H267.049C258.262 403.332 247.705 409.859 236.477 414.068L236.233 414.617L236.782 414.861C240.749 413.336 244.532 411.628 248.193 409.676Z" fill="#F5E6D0"/>
<path d="M249.415 401.172C252.623 399.528 255.649 397.771 258.372 395.9L258.493 395.333L257.888 395.22C250.323 400.491 240.398 404.856 229.989 407.52L229.686 408.03L230.231 408.314C236.948 406.557 243.545 404.119 249.415 401.172Z" fill="#F5E6D0"/>
<path d="M340.807 348.926L340.986 348.276L340.389 348.081C330.952 353.606 320.261 354.841 309.928 356.011L307.3 356.336L306.942 356.856L307.419 357.246L310.047 356.921C320.5 355.751 331.251 354.516 340.807 348.926Z" fill="#F5E6D0"/>
<path d="M310.658 346.771L310.87 346.241C308.115 339.822 307.196 331.696 308.538 324.982L308.115 324.511L307.549 324.865C306.207 331.696 307.125 340.058 309.952 346.595L310.658 346.771Z" fill="#F5E6D0"/>
<path d="M154.261 66.6495C160.679 60.4524 166.146 53.4138 170.266 45.916C175.019 37.1942 177.713 26.1007 174.782 16.3077C171.137 4.14308 158.619 -3.12511 145.863 1.31231C140.316 3.22499 135.404 6.66782 130.888 10.3402C117.736 21.1277 110.763 36.9647 106.564 52.8782C103.237 65.7314 103.395 79.2732 97.8489 91.5144C98.2451 90.5963 106.881 90.2903 108.07 90.1372C125.263 87.6125 141.584 78.8142 154.261 66.6495Z" fill="#F5E6D0"/>
<path d="M57.391 94.9734C56.6841 92.8192 55.9771 90.6649 55.1917 88.6646C49.6934 74.5082 39.7966 61.5058 25.9725 54.6584C21.731 52.5811 16.9396 50.9654 12.3054 51.9656C7.67114 52.8889 3.90094 56.1972 1.23036 59.9671C-2.61841 65.2757 -4.73922 71.7384 -4.81776 78.2781C-4.97486 92.0498 3.9009 104.437 13.9548 114.054C21.7309 121.44 30.0568 128.133 37.9115 135.365C41.2104 138.366 44.745 141.289 47.9654 144.444C49.4578 145.906 57.1554 152.907 56.6055 154.984C61.0041 135.211 63.5962 114.362 57.391 94.9734Z" fill="#F5E6D0"/>
<path d="M31.0808 175.349C29.5543 173.595 27.9475 171.993 26.3406 170.468C15.3338 159.638 0.63121 151.63 -15.1158 150.638C-19.9363 150.333 -25.1586 150.791 -29.0954 153.46C-33.0321 156.053 -35.2014 160.553 -36.2458 164.976C-37.692 171.307 -37.0492 178.018 -34.3979 183.967C-28.8543 196.551 -15.4373 204.407 -2.02014 209.288C8.26365 213.025 18.8688 216 29.2329 219.508C33.6517 221.033 38.0706 222.33 42.409 223.932C44.4176 224.694 54.4603 228.126 54.9424 230.262C51.086 210.585 44.8997 190.679 31.0808 175.349Z" fill="#F5E6D0"/>
<path d="M94.2035 126.771C96.3605 125.788 98.4375 124.805 100.515 123.974C114.974 118.002 131.591 115.961 146.53 120.723C151.083 122.159 155.717 124.427 158.273 128.282C160.829 132.062 161.069 136.976 160.27 141.436C159.072 147.71 155.797 153.682 151.003 158.142C140.858 167.667 125.439 170.086 111.06 169.708C100.115 169.405 89.1706 168.347 78.226 167.818C73.5926 167.591 68.9591 167.213 64.3256 167.138C62.1687 167.138 51.5436 166.608 50.3453 168.423C61.6893 151.868 75.43 135.842 94.2035 126.771Z" fill="#F5E6D0"/>
<path d="M27.8764 462L28.9234 461.769C69.3521 439.307 94.3986 394.307 91.4188 349.615C89.8886 327.154 81.8351 305.619 74.0232 284.855C69.9964 274.203 65.8891 263.166 62.6677 252.205C52.1176 215.772 44.4667 173.165 68.0635 132.796C78.6942 114.657 94.2375 96.9039 115.579 78.6876C116.385 77.9929 116.465 76.758 115.74 75.9089C115.016 75.137 113.727 75.0598 112.841 75.7545C91.1772 94.3567 75.3117 112.341 64.52 130.866C40.1983 172.393 47.9297 216.004 58.7215 253.208C61.9429 264.323 66.1307 275.438 70.1574 286.167C77.8888 306.699 85.8619 327.926 87.3115 349.847C90.2108 393.072 65.9697 436.683 26.8295 458.372C25.863 458.913 25.5409 460.148 26.1046 461.074C26.4268 461.692 27.1516 462 27.8764 462Z" fill="#F5E6D0"/>
<path d="M57.55 150.556L58.0269 150.479C59.1398 150.248 59.7757 149.173 59.4577 148.097C51.8267 118.753 39.1878 91.0989 21.859 65.826C21.2231 64.9042 20.0307 64.6738 19.0768 65.2883C18.123 65.9028 17.8844 67.0551 18.5204 67.9769C35.5312 92.8657 48.0112 120.136 55.5628 149.019C55.8807 149.941 56.6756 150.556 57.55 150.556Z" fill="#F5E6D0"/>
<path d="M49.9082 225.834C50.3066 225.834 50.6254 225.757 50.9442 225.525C51.9004 224.985 52.1394 223.75 51.5816 222.824C36.0432 198.978 14.3692 179.145 -11.0499 165.563C-12.0061 165.023 -13.2811 165.409 -13.7592 166.335C-14.317 167.261 -13.9186 168.496 -12.9624 168.959C11.899 182.309 33.0949 201.602 48.2349 224.908C48.5536 225.525 49.2708 225.834 49.9082 225.834Z" fill="#F5E6D0"/>
<path d="M53.8848 168.268C54.2816 168.268 54.7577 168.109 55.0751 167.871C76.4999 151.829 110.065 139.678 140.457 136.899C141.568 136.82 142.361 135.787 142.282 134.675C142.203 133.563 141.171 132.769 140.06 132.849C108.955 135.708 74.6748 148.097 52.6945 164.615C51.8217 165.25 51.5836 166.521 52.2978 167.395C52.6945 167.951 53.3294 168.268 53.8848 168.268Z" fill="#F5E6D0"/>
<path d="M115.7 78.2299C116.394 78.2299 116.989 77.9456 117.484 77.4717C134.729 60.7931 147.118 42.5983 158.913 16.6327C159.507 15.4008 158.913 13.9793 157.624 13.5055C156.336 12.9369 154.849 13.5055 154.353 14.7374C142.857 40.1344 130.765 57.8554 113.916 74.155C112.925 75.1026 112.925 76.6189 113.916 77.5665C114.412 77.9456 115.105 78.2299 115.7 78.2299Z" fill="#F5E6D0"/>
</svg>
