<svg width="240" height="239" viewBox="0 0 240 239" fill="none" xmlns="http://www.w3.org/2000/svg">
<g style="mix-blend-mode:darken">
<path d="M169.401 36.0508C187.317 46.0519 192.065 68.932 192.065 68.932H199.692C195.447 43.2458 171.632 31.518 171.632 31.518C170.84 31.1582 170.049 30.7985 169.185 30.4387C167.027 29.5753 164.796 28.7839 162.494 27.9924C157.961 26.5534 153.284 25.4022 148.536 24.5388C138.966 22.812 129.109 22.2364 119.252 22.5962C109.323 23.0279 99.3937 24.3949 89.6085 26.7693C79.8233 29.0717 70.11 32.2375 60.7565 36.1228C69.8942 31.5899 79.3196 27.7766 89.1049 24.7547C98.8901 21.6608 108.963 19.5743 119.108 18.4231C129.325 17.3438 139.614 17.1999 149.831 18.3511C154.939 18.9267 159.976 19.7901 165.012 21.0133C165.732 21.1572 166.379 21.373 167.099 21.5889C150.694 5.47204 126.519 -2.94612 100.761 0.939185C71.6929 5.32814 40.5385 25.6181 26.7241 58.2834C68.9588 49.1457 80.4708 70.443 121.914 69.004C148.032 67.9967 159.616 55.6932 169.401 36.0508Z" fill="#F5E6D0"/>
<path d="M13.9177 125.27C13.6299 104.764 31.0418 89.151 31.0418 89.151L27.2284 82.6035C7.08239 99.0801 8.88114 125.63 8.88114 125.63C8.95309 126.493 9.02504 127.356 9.16894 128.22C9.45674 130.522 9.88844 132.897 10.3921 135.199C11.3994 139.876 12.7664 144.481 14.3494 149.085C17.5871 158.223 22.048 167.073 27.3004 175.491C32.6247 183.837 38.8124 191.824 45.7196 199.091C52.6268 206.43 60.1816 213.193 68.24 219.453C59.8218 213.84 51.6915 207.509 44.2086 200.602C36.6539 193.694 29.8186 185.996 23.7029 177.793C17.6591 169.519 12.4067 160.597 8.23359 151.244C6.14704 146.567 4.42024 141.746 2.90928 136.782C2.69343 136.062 2.54953 135.415 2.33368 134.695C-3.42232 157 1.39833 182.11 17.5871 202.472C35.9344 225.424 69.1034 242.261 104.215 237.872C75.2191 205.854 87.8824 185.204 65.8656 150.021C52.1951 127.86 35.7905 123.975 13.9177 125.27Z" fill="#F5E6D0"/>
<path d="M221.062 80.8037C207.824 121.959 183.648 121.312 164.15 157.934C151.918 180.958 156.811 197.147 168.827 215.422C151.199 225.927 128.966 218.66 128.966 218.66L125.153 225.208C149.472 234.345 171.561 219.595 171.561 219.595C172.28 219.092 173 218.588 173.647 218.013C175.518 216.574 177.317 215.063 179.043 213.408C182.569 210.17 185.951 206.716 189.045 203.047C195.304 195.636 200.772 187.434 205.377 178.656C209.982 169.878 213.723 160.524 216.601 150.883C219.479 141.242 221.638 131.313 222.933 121.24C222.285 131.385 220.846 141.53 218.616 151.459C216.386 161.46 213.148 171.245 209.119 180.67C204.945 190.024 199.909 199.09 193.793 207.364C190.771 211.537 187.462 215.422 183.936 219.164C183.432 219.667 182.929 220.171 182.425 220.747C204.586 214.631 223.94 197.867 233.438 173.619C244.446 146.134 242.432 109.008 221.062 80.8037Z" fill="#F5E6D0"/>
</g>
</svg>
