<svg width="182" height="137" viewBox="0 0 182 137" fill="none" xmlns="http://www.w3.org/2000/svg">
<g clip-path="url(#clip0)">
<path d="M108.401 12.7903C108.401 12.7903 106.861 9.96856 107.325 8.00344C107.789 6.03832 110.851 4.03088 110.851 4.03088C110.851 4.03088 116.245 1.64653 118.692 3.62778C121.138 5.60902 122.443 7.56406 122.23 8.88019C122.017 10.1963 121.394 13.0261 121.394 13.0261L108.407 12.7903" fill="#2B1306"/>
<path d="M127.917 33.52C127.951 29.489 118.732 27.407 117.831 27.407V21.2899C119.115 20.438 120.111 19.214 120.684 17.7809C121.637 18.0792 122.797 17.4181 123.358 16.2169C123.961 14.933 123.645 13.5201 122.662 13.0606C122.258 12.882 121.8 12.8697 121.387 13.0263C121.011 8.95097 118.243 5.78662 114.882 5.78662C111.585 5.78662 108.851 8.83004 108.4 12.7905C108.17 12.6701 107.916 12.6025 107.656 12.5928C107.396 12.583 107.138 12.6313 106.899 12.7341C105.916 13.1936 105.604 14.6065 106.201 15.8883C106.776 17.1178 107.976 17.7789 108.941 17.4302C109.456 18.875 110.383 20.1365 111.607 21.0581V27.411H111.442C110.361 27.411 100.733 28.7513 99.9951 32.3853L104.886 54.187L122.248 54.5558L127.917 33.52Z" fill="#EAA78A"/>
<path d="M109.657 135.833L113.678 75.6339H114.08L120.111 135.535H128.554C130.032 67.2534 127.903 59.9653 127.903 59.9653L101.376 59.9875C99.8162 77.0951 100.387 135.535 100.387 135.535L109.657 135.833Z" fill="#4D6DB4"/>
<path d="M125.756 30.6234C125.756 30.6234 132.931 28.9162 136.658 43.3009C140.385 57.6856 139.432 57.347 139.432 57.347C139.432 57.347 132.885 65.3646 129.125 68.1118C129.543 71.6873 125.104 71.5502 125.104 71.5502C125.104 71.5502 123.349 71.0967 123.534 69.7584C123.719 68.4202 120.742 72.0642 119.658 71.5321C118.575 71 120.696 68.7749 120.696 68.7749C120.696 68.7749 127.547 63.3572 131.753 55.6156C126.928 49.2648 124.373 41.9888 124.373 41.9888C124.373 41.9888 122.103 31.3832 125.756 30.6234Z" fill="#EAA78A"/>
<path d="M103.684 29.4265C103.684 29.4265 95.7695 28.9246 92.0443 43.3093C88.3191 57.6939 90.0078 56.15 90.0078 56.15C90.0078 56.15 96.5556 64.1597 100.317 66.9149C99.8968 70.4823 104.338 70.3412 104.338 70.3412C104.338 70.3412 106.093 69.8877 105.908 68.5494C105.723 67.2111 108.7 70.8552 109.784 70.3231C110.867 69.791 108.746 67.5659 108.746 67.5659C108.746 67.5659 101.893 62.1522 97.7035 54.4187C102.528 48.0679 105.084 40.7919 105.084 40.7919C105.084 40.7919 107.337 30.1782 103.684 29.4265Z" fill="#EAA78A"/>
<path d="M93.5078 38.8285L101.045 44.0688C101.045 44.0688 100.655 59.2395 101.39 59.9772C103.349 60.0114 102.573 59.9772 103.427 59.9772L127.917 59.9611C127.917 59.9611 127.917 47.6826 127.716 43.708C131.749 41.88 135.249 38.8244 135.249 38.8244C135.249 38.8244 132.822 28.9223 118.076 26.6226C116.84 27.7976 116.669 28.624 114.916 28.759C113.163 28.894 111.633 26.6226 111.633 26.6226C111.633 26.6226 97.0239 25.899 93.5078 38.8285Z" fill="#4C50A2"/>
<path d="M111.518 14.409C112.038 14.409 112.459 13.9867 112.459 13.4657C112.459 12.9448 112.038 12.5225 111.518 12.5225C110.999 12.5225 110.578 12.9448 110.578 13.4657C110.578 13.9867 110.999 14.409 111.518 14.409Z" fill="black"/>
<path d="M111.732 13.5845C111.931 13.5845 112.093 13.422 112.093 13.2217C112.093 13.0213 111.931 12.8589 111.732 12.8589C111.532 12.8589 111.37 13.0213 111.37 13.2217C111.37 13.422 111.532 13.5845 111.732 13.5845Z" fill="white"/>
<path d="M117.948 14.4554C118.467 14.4554 118.889 14.0331 118.889 13.5121C118.889 12.9912 118.467 12.5688 117.948 12.5688C117.428 12.5688 117.007 12.9912 117.007 13.5121C117.007 14.0331 117.428 14.4554 117.948 14.4554Z" fill="black"/>
<path d="M118.217 13.7656C118.417 13.7656 118.579 13.6032 118.579 13.4028C118.579 13.2025 118.417 13.04 118.217 13.04C118.017 13.04 117.855 13.2025 117.855 13.4028C117.855 13.6032 118.017 13.7656 118.217 13.7656Z" fill="white"/>
<path d="M114.916 18.2141C114.716 18.2949 114.504 18.3386 114.289 18.343C113.882 18.3478 113.487 18.2154 113.165 17.9672C112.843 17.7189 112.613 17.3693 112.514 16.9745C112.497 16.9037 112.508 16.829 112.546 16.7667C112.583 16.7045 112.644 16.6596 112.715 16.642C112.785 16.6249 112.859 16.6366 112.921 16.6744C112.983 16.7122 113.027 16.773 113.044 16.8435C113.113 17.1183 113.271 17.362 113.495 17.535C113.719 17.708 113.994 17.8003 114.277 17.7968C114.552 17.7899 114.817 17.6913 115.031 17.5165C115.244 17.3417 115.393 17.1007 115.455 16.8314C115.463 16.7963 115.478 16.7632 115.499 16.734C115.52 16.7047 115.546 16.6799 115.577 16.6609C115.607 16.6419 115.641 16.6291 115.677 16.6233C115.712 16.6174 115.748 16.6186 115.783 16.6268C115.818 16.635 115.851 16.6501 115.881 16.6711C115.91 16.6921 115.934 16.7186 115.953 16.7492C115.972 16.7798 115.985 16.8139 115.991 16.8494C115.997 16.885 115.996 16.9213 115.987 16.9564C115.922 17.2366 115.791 17.4971 115.604 17.7159C115.418 17.9348 115.182 18.1056 114.916 18.2141Z" fill="black"/>
<path d="M110.303 15.4757C110.33 15.0982 109.864 14.7578 109.262 14.7154C108.661 14.673 108.152 14.9447 108.126 15.3223C108.099 15.6998 108.565 16.0402 109.167 16.0826C109.768 16.125 110.277 15.8533 110.303 15.4757Z" fill="#FF8E61"/>
<path d="M120.635 15.8634C120.661 15.485 120.194 15.1439 119.591 15.1016C118.988 15.0593 118.478 15.3318 118.452 15.7102C118.425 16.0887 118.893 16.4298 119.495 16.4721C120.098 16.5144 120.608 16.2419 120.635 15.8634Z" fill="#FF8E61"/>
<path d="M110.723 2.65631C110.723 2.65631 108.535 3.31538 107.661 4.84918C107.406 5.31502 107.255 5.83034 107.217 6.36004C107.18 6.88974 107.256 7.42139 107.442 7.9188C107.442 7.9188 112.035 10.3374 114.44 10.1117C116.844 9.88593 120.125 9.89198 121.438 8.13849C122.751 6.385 123.187 4.21833 121.438 3.21864C119.689 2.21895 114.221 1.55987 111.159 4.19213C111.159 2.876 111.159 3.09569 110.723 2.65631Z" fill="#2B1306"/>
<path d="M147.727 41.3945C147.727 44.4943 147.987 47.8723 147.987 47.8723V54.8439C147.987 54.8439 136.851 61.4588 136.592 47.0963C136.592 43.7163 139.205 40.4452 139.205 40.4452C139.205 40.4452 140.353 35.9667 140.613 33.9955C140.872 32.0244 141.889 29.2853 143.64 26.7498C145.391 24.2143 149.283 23.9281 149.283 23.9281C149.283 23.9281 153.692 23.3658 156.287 28.7169C158.883 34.0681 161.15 37.3111 161.054 39.6329C160.957 41.9548 162.773 45.8951 164.069 46.4594C165.366 47.0238 165.879 50.9641 164.588 52.0908C163.297 53.2174 153.951 53.7818 153.951 53.7818L152.914 46.1773L152.395 41.6706C152.395 41.6706 145.65 41.1163 147.727 41.3945Z" fill="#F2DE8C"/>
<path d="M139.35 58.6998C134.817 71.4499 133.994 84.1597 133.994 84.1597C133.994 84.1597 135.014 86.7799 134.817 88.2613C134.62 89.7427 132.256 90.5569 132.256 88.4245C132.256 86.2921 130.677 85.9636 130.086 86.9492C129.495 87.9347 132.256 90.5569 131.268 91.3833C126.144 87.447 130.086 83.674 130.086 83.674C130.086 83.674 132.256 62.0254 132.65 57.7626C134.029 50.5451 136.974 50.5874 136.974 50.5874L139.35 55.8761L140.534 58.5809L139.35 58.6998Z" fill="#EAA78A"/>
<path d="M152.586 46.5461V41.3179C153.722 40.6034 154.611 39.5565 155.134 38.3188C155.986 38.5728 157.023 38.0064 157.524 36.9805C158.059 35.8841 157.781 34.6768 156.903 34.2838C156.541 34.1306 156.134 34.1198 155.765 34.2535C155.427 30.7707 152.95 28.0659 149.953 28.0659C147.008 28.0659 144.573 30.6659 144.163 34.052C143.956 33.9486 143.729 33.8908 143.498 33.8825C143.267 33.8741 143.036 33.9154 142.822 34.0036C141.944 34.3966 141.664 35.6039 142.199 36.7003C142.712 37.7504 143.785 38.3128 144.645 38.0165C145.114 39.2672 145.943 40.3502 147.026 41.1284V46.5461H146.881C145.914 46.5461 136.654 49.8737 136.654 50.7968L140.225 71.752H157.23L161.603 51.7804C161.603 50.9923 153.391 46.5461 152.586 46.5461Z" fill="#EAA78A"/>
<path d="M158.533 73.9267L157.258 71.752H140.206L138.614 74.0738C132.583 83.3915 134.411 119.588 135.651 136.645L145.391 136.778L148.475 87.9848H148.841L153.501 136.889L162.379 137.01C164.462 78.9937 158.533 73.9267 158.533 73.9267Z" fill="#592C87"/>
<path d="M161.03 51.0505C161.03 51.0505 164.908 55.0332 167.75 63.2665C171.369 59.0178 176.023 53.971 176.023 53.971C176.023 53.971 174.473 50.6857 176.023 48.7428C177.573 46.7998 176.54 43.0832 177.316 42.8172C178.092 42.5511 179.384 43.8793 178.868 47.3319C180.934 44.1454 181.97 43.0832 181.97 44.4114C181.97 45.7397 180.16 48.6601 180.16 48.6601C180.16 48.6601 182.227 49.7727 181.97 51.2077C181.712 52.6428 179.901 55.2992 178.608 55.0372C177.058 57.1635 170.076 70.4417 167.752 70.9718C165.428 71.5019 158.963 59.818 158.963 59.818C158.963 59.818 156.118 55.8353 157.67 53.711C159.222 51.5866 161.03 51.0505 161.03 51.0505Z" fill="#EAA78A"/>
<path d="M132.282 61.5758L137.911 63.1217L138.452 61.3541L138.998 73.7011L158.499 74.1042L159.595 60.9227L160.781 62.9141L165.392 57.6738C165.392 57.6738 163.583 53.3102 161.032 51.0589C158.481 48.8075 152.588 46.5542 152.588 46.5542L150.26 47.8582L146.883 46.5542C146.883 46.5542 139.477 48.5899 135.792 51.073C133.848 52.4395 132.135 57.2565 132.282 61.5758Z" fill="#EEE3F0"/>
<path d="M149.657 38.2944C149.825 38.3658 150.004 38.4061 150.186 38.4133C150.53 38.4237 150.867 38.3175 151.142 38.1119C151.418 37.9063 151.617 37.6134 151.706 37.2806C151.715 37.2507 151.719 37.2191 151.716 37.1878C151.713 37.1565 151.704 37.1262 151.689 37.0986C151.674 37.071 151.653 37.0468 151.628 37.0274C151.604 37.008 151.575 36.9939 151.545 36.9858C151.515 36.9777 151.483 36.9759 151.452 36.9805C151.421 36.985 151.391 36.9959 151.365 37.0123C151.338 37.0288 151.315 37.0505 151.297 37.0762C151.279 37.1018 151.266 37.1309 151.26 37.1617C151.201 37.3908 151.066 37.5931 150.878 37.736C150.69 37.8788 150.459 37.9537 150.223 37.9486C149.987 37.9435 149.76 37.8586 149.578 37.7077C149.396 37.5568 149.27 37.3488 149.221 37.1173C149.204 37.062 149.167 37.0151 149.117 36.9859C149.067 36.9566 149.008 36.9471 148.952 36.9592C148.895 36.9714 148.845 37.0043 148.812 37.0514C148.778 37.0986 148.764 37.1566 148.771 37.2141C148.821 37.4522 148.928 37.6746 149.083 37.8626C149.237 38.0506 149.434 38.1987 149.657 38.2944Z" fill="black"/>
<path d="M154.541 36.5924C155.051 36.5653 155.451 36.2846 155.434 35.9656C155.417 35.6466 154.99 35.41 154.48 35.4372C153.97 35.4643 153.57 35.7449 153.587 36.064C153.604 36.383 154.031 36.6196 154.541 36.5924Z" fill="#FF8E61"/>
<path d="M145.918 37.5163C146.429 37.4907 146.83 37.211 146.814 36.8915C146.798 36.572 146.372 36.3338 145.861 36.3594C145.35 36.385 144.949 36.6647 144.965 36.9842C144.981 37.3037 145.408 37.5419 145.918 37.5163Z" fill="#FF8E61"/>
<path d="M152.735 35.4669C153.184 35.4669 153.547 35.1023 153.547 34.6526C153.547 34.2029 153.184 33.8384 152.735 33.8384C152.286 33.8384 151.923 34.2029 151.923 34.6526C151.923 35.1023 152.286 35.4669 152.735 35.4669Z" fill="black"/>
<path d="M152.554 34.7513C152.726 34.7513 152.866 34.6114 152.866 34.4389C152.866 34.2663 152.726 34.1265 152.554 34.1265C152.382 34.1265 152.243 34.2663 152.243 34.4389C152.243 34.6114 152.382 34.7513 152.554 34.7513Z" fill="white"/>
<path d="M147.193 35.4122C147.641 35.4122 148.005 35.0477 148.005 34.598C148.005 34.1483 147.641 33.7837 147.193 33.7837C146.744 33.7837 146.38 34.1483 146.38 34.598C146.38 35.0477 146.744 35.4122 147.193 35.4122Z" fill="black"/>
<path d="M146.963 34.8118C147.136 34.8118 147.275 34.672 147.275 34.4994C147.275 34.3269 147.136 34.187 146.963 34.187C146.791 34.187 146.652 34.3269 146.652 34.4994C146.652 34.672 146.791 34.8118 146.963 34.8118Z" fill="white"/>
<path d="M146.517 34.346H146.499C146.341 34.2722 146.203 34.1625 146.095 34.0257C145.987 33.8889 145.913 33.7287 145.877 33.558C145.873 33.5345 145.877 33.5102 145.888 33.4894C145.9 33.4687 145.919 33.4529 145.942 33.4451C145.953 33.4427 145.964 33.4428 145.975 33.4453C145.986 33.4478 145.996 33.4527 146.005 33.4596C146.014 33.4666 146.021 33.4753 146.026 33.4854C146.031 33.4954 146.034 33.5064 146.034 33.5176C146.067 33.6573 146.132 33.7877 146.222 33.8993C146.312 34.011 146.426 34.1009 146.555 34.1626C146.576 34.1745 146.591 34.1935 146.599 34.2161C146.607 34.2387 146.606 34.2634 146.597 34.2856C146.593 34.3033 146.582 34.3189 146.568 34.3299C146.553 34.3409 146.535 34.3466 146.517 34.346Z" fill="black"/>
<path d="M146.471 34.6141H146.451C146.281 34.5821 146.121 34.5108 145.984 34.4058C145.847 34.3008 145.736 34.1651 145.661 34.0094C145.651 33.9875 145.649 33.9625 145.655 33.9392C145.662 33.9159 145.677 33.8957 145.697 33.8825C145.707 33.878 145.718 33.8758 145.729 33.876C145.741 33.8762 145.752 33.8787 145.762 33.8835C145.772 33.8883 145.781 33.8951 145.788 33.9036C145.795 33.9122 145.8 33.9221 145.804 33.9329C145.87 34.0618 145.964 34.1741 146.08 34.2613C146.195 34.3486 146.329 34.4085 146.471 34.4367C146.494 34.4433 146.513 34.458 146.526 34.4781C146.538 34.4982 146.543 34.5222 146.539 34.5456C146.537 34.5627 146.528 34.5786 146.516 34.5909C146.504 34.6032 146.488 34.6113 146.471 34.6141Z" fill="black"/>
<path d="M153.334 34.3321H153.354C153.527 34.3085 153.691 34.2448 153.835 34.1461C153.978 34.0474 154.097 33.9165 154.181 33.7637C154.192 33.7426 154.195 33.7183 154.19 33.695C154.185 33.6718 154.171 33.6511 154.152 33.6367C154.143 33.6314 154.132 33.6283 154.12 33.6276C154.109 33.6269 154.098 33.6286 154.088 33.6326C154.077 33.6366 154.068 33.6428 154.06 33.6509C154.052 33.6589 154.046 33.6685 154.042 33.679C153.968 33.804 153.868 33.9106 153.747 33.9909C153.627 34.0712 153.49 34.1231 153.346 34.1426C153.323 34.1479 153.303 34.1614 153.288 34.1807C153.274 34.1999 153.268 34.2236 153.27 34.2474C153.269 34.2669 153.275 34.286 153.287 34.3015C153.298 34.317 153.315 34.3278 153.334 34.3321Z" fill="black"/>
<path d="M153.3 34.6019H153.318C153.491 34.6208 153.666 34.5987 153.829 34.5375C153.992 34.4762 154.139 34.3775 154.257 34.2492C154.272 34.231 154.281 34.2077 154.281 34.1837C154.281 34.1597 154.272 34.1365 154.257 34.1182C154.248 34.1109 154.239 34.1055 154.228 34.1023C154.217 34.0992 154.206 34.0983 154.195 34.0999C154.184 34.1014 154.173 34.1052 154.164 34.1112C154.155 34.1171 154.146 34.125 154.14 34.1343C154.039 34.238 153.916 34.3172 153.78 34.3661C153.644 34.415 153.498 34.4322 153.354 34.4165C153.331 34.4162 153.308 34.4244 153.29 34.4395C153.272 34.4547 153.26 34.4758 153.256 34.4991C153.25 34.5188 153.252 34.5397 153.26 34.5584C153.268 34.5771 153.282 34.5925 153.3 34.6019Z" fill="black"/>
<path d="M135.351 49.5514C134.672 59.6591 140.761 60.0824 144.058 59.5886C145.238 59.4132 147.476 59.7196 146.231 57.2405C143.628 53.9492 146.643 49.3135 146.887 46.8869C147.649 45.8791 145.721 44.1256 144.211 44.1861L136.994 44.4763C136.759 44.4763 136.171 47.3525 135.989 47.4996C135.285 48.0639 135.271 48.6263 135.325 48.9104C135.361 49.1221 135.37 49.3375 135.351 49.5514Z" fill="#F2DE8C"/>
<path d="M163.4 48.9143C162.381 48.1363 161.253 44.2343 161.12 41.2554H152.677C152.677 41.2554 151.269 47.3019 153.883 47.3019C156.697 50.9298 152.476 50.5267 152.274 56.3717C151.983 57.2041 153.408 59.1652 154.285 59.1168C157.232 58.9555 163.289 58.5121 164.337 57.581C165.722 56.3334 164.61 49.8394 163.4 48.9143Z" fill="#F2DE8C"/>
<path d="M156.482 31.6997C154.247 25.8285 149.311 25.8547 149.311 25.8547C149.311 25.8547 145.55 25.6875 143.232 27.6123C143.682 28.6059 144.193 29.5512 144.965 30.1458C145.469 29.2529 145.831 28.4165 145.831 28.4165C145.831 28.4165 149.752 27.0902 151.679 30.561C153.607 34.0317 154.597 32.9634 154.597 32.9634C154.597 32.9634 154.822 32.9896 154.85 34.2413C155.748 34.1788 156.613 34.0941 157.329 33.8503C157.053 33.169 156.768 32.4495 156.482 31.6997Z" fill="#F2DE8C"/>
<path d="M149.257 28.2434C148.025 27.6992 147.211 26.8325 146.495 25.9336C146.232 26.0572 145.977 26.1951 145.729 26.3468C144.563 27.0429 143.57 27.9953 142.824 29.1322C144.199 29.4184 145.584 29.6905 146.968 29.9646C147.762 29.628 148.588 28.9206 149.257 28.2434Z" fill="#F2DE8C"/>
<path d="M143.64 29.9321C144.444 30.1518 143.387 31.3429 144.03 31.7783C144.259 31.9315 146.32 31.0849 146.517 30.8894C146.609 30.7967 146.7 30.704 146.784 30.6093C147.588 29.7225 148.897 28.9969 149.257 28.1504C149.43 27.7473 148.332 27.1567 147.89 27.193C146.853 27.2797 145.813 27.3724 144.774 27.4651C144.643 27.478 144.521 27.5332 144.424 27.6223C143.985 28.0494 143.602 28.5318 143.286 29.0573C143.239 29.1357 143.21 29.2242 143.203 29.3155C143.196 29.4069 143.21 29.4988 143.244 29.5838C143.279 29.6687 143.332 29.7445 143.401 29.8049C143.47 29.8654 143.552 29.9089 143.64 29.9321Z" fill="#F2DE8C"/>
<path d="M146.231 57.2402C143.628 53.9489 146.8 48.7751 146.887 46.8865C147.046 40.6385 145.721 44.1253 144.211 44.1858" fill="#F2DE8C"/>
<path d="M30.4467 5.77224C30.4467 5.77224 29.3149 10.0552 27.9016 11.6615C26.4883 13.2679 25.6399 14.0802 25.6399 15.4104C25.6399 16.7406 27.0472 18.8892 26.2049 20.2295C25.3625 21.5698 25.6399 21.9688 25.6399 21.9688H48.7309C48.7309 21.9688 50.0477 20.9974 48.7309 19.4092C47.4142 17.8209 49.6778 17.0167 49.1129 15.6764C48.548 14.3361 47.9811 12.4637 47.1327 12.1977C46.2843 11.9316 45.436 10.5853 46.0009 9.51907C46.5658 8.45286 45.7174 6.30635 44.0267 5.50418C42.336 4.70201 42.8969 3.62976 41.765 3.08557C40.6332 2.54138 36.3873 1.75534 34.1237 2.82154C31.86 3.88774 30.9071 4.3634 30.6216 4.63549C30.3361 4.90759 30.4467 5.77224 30.4467 5.77224Z" fill="#231F20"/>
<path d="M27.3026 24.726C15.5299 16.9018 8.88162 6.52599 8.88162 6.52599C8.88162 6.52599 9.14699 3.55514 8.24233 2.41839C7.33766 1.28165 3.71901 2.22692 4.64579 4.06305C5.57257 5.89917 3.5421 7.28786 2.30171 6.84444C1.06132 6.40103 3.71097 2.22893 2.01021 2.21684C-3.33534 9.1784 3.72705 9.67421 3.72705 9.67421C3.72705 9.67421 16.0968 26.806 18.4952 30.2102C23.5211 35.4646 27.5619 33.3766 27.5619 33.3766L28.5369 27.1648L28.9913 24.0085L27.3026 24.726Z" fill="#EAA78A"/>
<path d="M46.9902 25.5181C58.7649 17.6939 65.4112 7.31608 65.4112 7.31608C65.4112 7.31608 65.1478 4.34522 66.0585 3.21251C66.9692 2.07979 70.5818 3.01096 69.657 4.85515C68.7323 6.69934 70.7607 8.07996 72.0011 7.63856C73.2415 7.19717 70.5818 3.01902 72.2946 3.0029C77.6402 9.96647 70.5778 10.4603 70.5778 10.4603C70.5778 10.4603 58.198 27.5921 55.8057 30.9963C50.7798 36.2527 46.7389 34.1646 46.7389 34.1646L45.7639 27.9508L45.3096 24.7966L46.9902 25.5181Z" fill="#EAA78A"/>
<path d="M50.1322 28.3483C50.1643 24.5188 41.2685 22.5315 40.4 22.5315V16.7087C41.6358 15.9031 42.5962 14.7377 43.1522 13.369C44.0729 13.6532 45.1927 13.0223 45.7335 11.8796C46.3125 10.6582 46.0109 9.31382 45.062 8.87645C44.6725 8.70591 44.2321 8.69363 43.8337 8.84219C43.4698 4.96234 40.798 1.95117 37.5553 1.95117C34.377 1.95117 31.7434 4.84745 31.3011 8.61847C31.0783 8.50323 30.8329 8.43862 30.5824 8.42921C30.3319 8.4198 30.0824 8.46584 29.8516 8.56405C28.9027 9.00141 28.6032 10.3458 29.1802 11.5672C29.735 12.7361 30.893 13.367 31.8238 13.0344C32.3222 14.4173 33.2166 15.6218 34.395 16.4971V22.5315H34.2362C33.1929 22.5315 23.903 23.8073 23.1913 27.2639L23.0747 52.4799H50.2387L50.1322 28.3483Z" fill="#EAA78A"/>
<path d="M50.1642 52.4575H23.0505C21.8161 68.9847 22.8495 118.709 23.2375 135.105L32.4851 135.23L36.0113 70.6938H36.3872L41.7147 135.355L50.2607 135.472C51.5253 60.5881 50.1642 52.4575 50.1642 52.4575Z" fill="#4C50A2"/>
<path d="M12.8519 11.73L8.24219 15.9403C8.24219 15.9403 17.8557 32.6509 23.0907 33.3664C23.0907 42.6377 23.0666 52.4573 23.0666 52.4573H50.2065V34.4467C50.2065 34.4467 55.5078 35.4545 67.2704 15.1402L62.6466 11.1313C62.6466 11.1313 50.8619 22.8435 47.6935 25.0605C44.8509 23.0027 40.4361 22.5331 40.4361 22.5331C40.4361 22.5331 40.609 24.6151 37.115 24.5889C33.621 24.5627 34.2663 22.5371 34.2663 22.5371C34.2663 22.5371 29.2967 22.7165 26.6631 24.2866C24.0296 22.3718 12.8519 11.73 12.8519 11.73Z" fill="#CAA5CF"/>
<path d="M34.8918 9.54325C35.3592 9.54325 35.7381 9.16335 35.7381 8.69472C35.7381 8.22609 35.3592 7.84619 34.8918 7.84619C34.4243 7.84619 34.0454 8.22609 34.0454 8.69472C34.0454 9.16335 34.4243 9.54325 34.8918 9.54325Z" fill="black"/>
<path d="M35.0845 8.8039C35.2643 8.8039 35.4101 8.65772 35.4101 8.47739C35.4101 8.29706 35.2643 8.15088 35.0845 8.15088C34.9046 8.15088 34.7588 8.29706 34.7588 8.47739C34.7588 8.65772 34.9046 8.8039 35.0845 8.8039Z" fill="white"/>
<path d="M40.6672 9.58573C41.1346 9.58573 41.5135 9.20583 41.5135 8.7372C41.5135 8.26857 41.1346 7.88867 40.6672 7.88867C40.1997 7.88867 39.8208 8.26857 39.8208 8.7372C39.8208 9.20583 40.1997 9.58573 40.6672 9.58573Z" fill="black"/>
<path d="M40.9087 8.96699C41.0886 8.96699 41.2344 8.82081 41.2344 8.64048C41.2344 8.46015 41.0886 8.31396 40.9087 8.31396C40.7288 8.31396 40.583 8.46015 40.583 8.64048C40.583 8.82081 40.7288 8.96699 40.9087 8.96699Z" fill="white"/>
<path d="M37.9757 12.6112C37.7923 12.6864 37.5968 12.7274 37.3987 12.7321C37.0251 12.7373 36.6607 12.6156 36.3647 12.387C36.0687 12.1583 35.8585 11.836 35.7683 11.4724C35.7576 11.4395 35.7537 11.4047 35.757 11.3702C35.7602 11.3357 35.7706 11.3023 35.7873 11.272C35.804 11.2417 35.8268 11.2152 35.8543 11.1941C35.8817 11.173 35.9131 11.1578 35.9467 11.1495C35.9802 11.1412 36.0151 11.1398 36.0492 11.1456C36.0832 11.1514 36.1158 11.1642 36.1447 11.1832C36.1736 11.2021 36.1983 11.2269 36.2173 11.2558C36.2362 11.2848 36.249 11.3173 36.2548 11.3515C36.3164 11.5997 36.4593 11.8199 36.6607 11.9768C36.8621 12.1338 37.1102 12.2183 37.3653 12.217C37.6203 12.2156 37.8675 12.1283 38.0672 11.9691C38.2669 11.81 38.4074 11.5882 38.4662 11.3394C38.4844 11.2777 38.5255 11.2253 38.5809 11.193C38.6364 11.1606 38.7021 11.1508 38.7646 11.1655C38.8271 11.1802 38.8816 11.2183 38.917 11.272C38.9523 11.3257 38.9658 11.3909 38.9548 11.4543C38.8956 11.7115 38.7758 11.9507 38.6055 12.152C38.4351 12.3533 38.2192 12.5107 37.9757 12.6112Z" fill="black"/>
<path d="M33.7637 10.0132C33.788 9.66593 33.3576 9.3528 32.8025 9.31384C32.2473 9.27489 31.7776 9.52484 31.7534 9.87214C31.7291 10.2194 32.1595 10.5326 32.7147 10.5715C33.2698 10.6105 33.7395 10.3605 33.7637 10.0132Z" fill="#FF8E61"/>
<path d="M43.2081 10.7249C43.2324 10.3785 42.8031 10.066 42.2493 10.027C41.6956 9.98799 41.2269 10.2372 41.2027 10.5836C41.1784 10.9301 41.6076 11.2426 42.1614 11.2816C42.7152 11.3206 43.1838 11.0714 43.2081 10.7249Z" fill="#FF8E61"/>
<path d="M37.324 2.65034C37.324 2.65034 35.1126 6.27825 32.1413 6.78616C29.17 7.29407 29.9299 4.71825 32.6358 2.39236C35.3418 0.0664642 37.324 -4.75257e-05 37.324 -4.75257e-05C37.324 -4.75257e-05 42.0162 -0.201598 43.9843 4.20228C45.9525 8.60616 41.2703 5.75221 41.2703 5.75221C41.2703 5.75221 37.5693 3.42631 37.324 2.65034Z" fill="#231F20"/>
<path d="M68.5534 18.6295C68.5534 18.6295 66.543 18.6295 66.1409 21.6528C65.9701 22.9326 64.4623 38.4581 64.4623 38.4581L63.5576 41.4813C63.5576 41.4813 68.6217 39.7097 71.5991 39.6553C74.5764 39.6008 75.6198 39.2965 78.8183 40.0584C82.0167 40.8202 84.8373 38.1799 84.8373 38.1799C84.8373 38.1799 85.2394 34.3505 85.2394 32.5365C85.2394 30.7225 83.43 23.6683 83.43 23.6683C83.43 23.6683 82.9375 18.9419 81.4197 18.6295C80.3099 18.4017 74.5844 18.0248 72.7751 18.831C70.9658 19.6372 68.5534 18.6295 68.5534 18.6295Z" fill="#42210B"/>
<path d="M85.3416 53.7737C89.8569 68.1563 91.4049 82.672 91.4049 82.672C91.4049 82.672 90.7716 85.7275 91.033 87.4085C91.2943 89.0894 93.2444 89.9117 93.0936 87.4709C92.9428 85.0302 94.1812 84.5747 94.724 85.6731C95.2668 86.7716 93.2423 89.9057 94.0867 90.8026C97.9064 86.044 94.4888 81.9162 94.4888 81.9162C94.4888 81.9162 91.2461 57.2404 90.6329 52.3649C89.0246 44.1678 86.6725 44.3593 86.6725 44.3593L85.1426 50.5348L84.3867 53.6911L85.3416 53.7737Z" fill="#EAA78A"/>
<path d="M87.5651 44.6999C87.5651 43.8574 78.2832 39.647 77.4409 39.647V33.927C78.6438 33.1323 79.576 31.9882 80.1127 30.6478C81.0053 30.9259 82.0929 30.3072 82.6176 29.1846C83.1785 27.9752 82.887 26.6652 81.9662 26.2359C81.5877 26.0691 81.159 26.0575 80.7721 26.2036C80.4182 22.3943 77.8269 19.4355 74.6787 19.4355C71.5907 19.4355 69.0376 22.2814 68.6074 25.9839C68.3915 25.8708 68.1532 25.8072 67.9099 25.7978C67.6665 25.7884 67.424 25.8334 67.2001 25.9295C66.2794 26.3588 65.9939 27.679 66.5488 28.8782C67.0855 30.027 68.2113 30.6458 69.114 30.3193C69.5953 31.6744 70.4636 32.8576 71.6108 33.7215V39.647H71.4581C70.4529 39.647 60.5659 42.0052 60.5659 43.015L64.7073 62.3074C64.9483 63.3467 65.2558 64.3693 65.628 65.3689H81.2747C82.0386 63.7444 81.8778 63.7444 82.1954 62.7649L87.5651 44.6999Z" fill="#EAA78A"/>
<path d="M81.739 67.4206H81.5822V65.2681H65.1676V67.5557C59.627 77.5828 60.1799 115.444 60.9137 135.617L70.3121 135.746L73.1266 83.5447H73.4784L77.7404 135.845L86.586 135.966C88.2304 73.2354 81.739 67.4206 81.739 67.4206Z" fill="#8E3E97"/>
<path d="M60.3431 43.2263L51.0632 51.7761L49.3042 37.1576C49.3042 37.1576 51.6482 32.3466 51.1899 30.1557C50.4501 30.3109 49.276 32.0826 49.276 32.0826C49.276 32.0826 48.5 25.893 47.9572 25.7539C47.4144 25.6148 47.2094 24.6393 47.5853 30.1497C45.788 26.4613 45.5347 25.244 45.0904 25.5906C44.6462 25.9373 46.353 30.4077 46.353 30.4077L43.7636 26.6326C43.7636 26.6326 43.068 25.7619 43.2711 26.7354C43.4741 27.7089 45.7137 31.0506 45.7137 31.0506C45.7137 31.0506 43.2771 28.0032 43.1826 28.7852C43.5847 29.4644 44.5316 31.5525 44.5316 31.5525C44.5316 31.5525 45.5468 36.4199 46.4394 36.9944C47.141 39.1348 45.9569 56.9116 47.1028 58.7034C48.2487 60.4952 53.2606 56.1437 53.2606 56.1437L64.1165 46.5015C64.1165 46.5015 64.3939 42.8857 62.3192 42.8131C60.2445 42.7406 60.3431 43.2263 60.3431 43.2263Z" fill="#EAA78A"/>
<path d="M87.7219 44.6333C87.7219 44.6333 86.572 43.1257 83.277 41.7854C81.6506 41.0679 80.3861 40.6688 78.8301 40.044C77.8772 42.5775 79.3266 42.777 74.8596 42.7347C70.3926 42.6923 71.2088 41.2714 70.5735 39.7275C68.4626 40.2032 60.0935 41.9446 60.4111 43.2103L65.1958 65.268C65.9678 65.6852 81.6808 65.526 81.6808 65.526L87.7219 44.6333Z" fill="#4C50A2"/>
<path d="M74.3833 30.9965C74.5513 31.0688 74.7312 31.1091 74.914 31.1154C75.2575 31.1268 75.5948 31.0209 75.8705 30.8152C76.1462 30.6094 76.3441 30.3159 76.4318 29.9827C76.4419 29.9525 76.4457 29.9207 76.443 29.889C76.4403 29.8573 76.4312 29.8265 76.4161 29.7986C76.401 29.7706 76.3804 29.7461 76.3554 29.7264C76.3305 29.7068 76.3018 29.6925 76.2711 29.6845C76.2405 29.6765 76.2085 29.6748 76.1771 29.6797C76.1458 29.6846 76.1158 29.6959 76.089 29.7129C76.0622 29.7299 76.0392 29.7523 76.0214 29.7786C76.0036 29.8048 75.9914 29.8345 75.9855 29.8658C75.9262 30.0948 75.7915 30.2971 75.6031 30.4398C75.4148 30.5824 75.1839 30.6571 74.9479 30.6518C74.712 30.6464 74.4847 30.5613 74.303 30.4102C74.1213 30.2591 73.9959 30.0509 73.947 29.8194C73.9408 29.7897 73.9288 29.7615 73.9116 29.7365C73.8945 29.7115 73.8726 29.6901 73.8472 29.6736C73.8218 29.6571 73.7933 29.6458 73.7635 29.6404C73.7337 29.635 73.7032 29.6356 73.6736 29.6421C73.6138 29.6556 73.5618 29.6921 73.5287 29.7438C73.4956 29.7954 73.4841 29.8581 73.4967 29.9182C73.5475 30.156 73.6545 30.3781 73.8088 30.5657C73.9631 30.7534 74.1601 30.9011 74.3833 30.9965Z" fill="black"/>
<path d="M79.2742 29.2853C79.7842 29.2581 80.184 28.9775 80.1671 28.6585C80.1502 28.3395 79.723 28.1029 79.213 28.13C78.703 28.1572 78.3033 28.4378 78.3201 28.7568C78.337 29.0759 78.7642 29.3125 79.2742 29.2853Z" fill="#FF8E61"/>
<path d="M70.556 29.7121C71.066 29.6849 71.4657 29.4043 71.4488 29.0853C71.4319 28.7662 71.0048 28.5296 70.4948 28.5568C69.9847 28.5839 69.585 28.8646 69.6019 29.1836C69.6188 29.5026 70.0459 29.7392 70.556 29.7121Z" fill="#FF8E61"/>
<path d="M77.467 28.3644C77.9155 28.3644 78.2792 27.9998 78.2792 27.5501C78.2792 27.1004 77.9155 26.7358 77.467 26.7358C77.0184 26.7358 76.6548 27.1004 76.6548 27.5501C76.6548 27.9998 77.0184 28.3644 77.467 28.3644Z" fill="black"/>
<path d="M77.2862 27.6487C77.4583 27.6487 77.5978 27.5089 77.5978 27.3363C77.5978 27.1638 77.4583 27.0239 77.2862 27.0239C77.1141 27.0239 76.9746 27.1638 76.9746 27.3363C76.9746 27.5089 77.1141 27.6487 77.2862 27.6487Z" fill="white"/>
<path d="M71.9245 28.3116C72.373 28.3116 72.7367 27.9471 72.7367 27.4974C72.7367 27.0477 72.373 26.6831 71.9245 26.6831C71.4759 26.6831 71.1123 27.0477 71.1123 27.4974C71.1123 27.9471 71.4759 28.3116 71.9245 28.3116Z" fill="black"/>
<path d="M71.6954 27.7112C71.8675 27.7112 72.007 27.5714 72.007 27.3988C72.007 27.2263 71.8675 27.0864 71.6954 27.0864C71.5233 27.0864 71.3838 27.2263 71.3838 27.3988C71.3838 27.5714 71.5233 27.7112 71.6954 27.7112Z" fill="white"/>
<path d="M71.2512 27.2456C71.2447 27.2476 71.2377 27.2476 71.2311 27.2456C71.0733 27.1722 70.9349 27.0626 70.827 26.9257C70.7191 26.7888 70.6447 26.6285 70.6099 26.4576C70.6058 26.4339 70.6102 26.4095 70.6223 26.3888C70.6345 26.3681 70.6536 26.3525 70.6763 26.3447C70.6873 26.343 70.6986 26.3436 70.7094 26.3465C70.7201 26.3494 70.7302 26.3545 70.7389 26.3616C70.7476 26.3686 70.7547 26.3773 70.7599 26.3873C70.765 26.3972 70.768 26.4081 70.7688 26.4193C70.8021 26.5602 70.8668 26.6918 70.958 26.8042C71.0492 26.9166 71.1646 27.0069 71.2955 27.0683C71.3161 27.0802 71.3317 27.0993 71.3391 27.122C71.3465 27.1447 71.3453 27.1694 71.3357 27.1912C71.3293 27.2081 71.3176 27.2226 71.3024 27.2324C71.2872 27.2422 71.2693 27.2468 71.2512 27.2456Z" fill="black"/>
<path d="M71.2027 27.5117H71.1846C71.0136 27.4781 70.8529 27.4048 70.7154 27.2977C70.5778 27.1906 70.4672 27.0527 70.3925 26.8949C70.3828 26.8732 70.3812 26.8487 70.3878 26.8258C70.3944 26.8029 70.4089 26.7831 70.4287 26.77C70.4389 26.7655 70.45 26.7632 70.4612 26.7632C70.4723 26.7632 70.4834 26.7656 70.4936 26.7701C70.5038 26.7747 70.513 26.7813 70.5205 26.7896C70.528 26.7979 70.5337 26.8077 70.5372 26.8183C70.6029 26.9475 70.6969 27.0601 70.8121 27.1477C70.9274 27.2353 71.0609 27.2957 71.2027 27.3242C71.2255 27.3308 71.2452 27.3454 71.2582 27.3654C71.2711 27.3854 71.2764 27.4095 71.273 27.4331C71.2719 27.4522 71.2644 27.4704 71.2516 27.4847C71.2388 27.499 71.2215 27.5085 71.2027 27.5117Z" fill="black"/>
<path d="M78.0661 27.2313H78.0862C78.2588 27.2083 78.4235 27.145 78.5674 27.0467C78.7112 26.9483 78.8301 26.8176 78.9145 26.665C78.9253 26.6437 78.9282 26.6192 78.9227 26.5959C78.9171 26.5727 78.9036 26.5521 78.8843 26.538C78.8747 26.5323 78.8638 26.5289 78.8527 26.5281C78.8415 26.5272 78.8303 26.5288 78.8198 26.5329C78.8094 26.537 78.8 26.5434 78.7924 26.5516C78.7848 26.5598 78.7791 26.5696 78.7758 26.5803C78.702 26.7048 78.6011 26.811 78.4806 26.8909C78.3602 26.9708 78.2233 27.0224 78.0802 27.0419C78.057 27.0472 78.0364 27.0607 78.0224 27.0799C78.0083 27.0992 78.0017 27.1229 78.0038 27.1467C78.0027 27.1659 78.0084 27.1848 78.0198 27.2002C78.0311 27.2157 78.0475 27.2267 78.0661 27.2313Z" fill="black"/>
<path d="M78.0321 27.4997H78.0522C78.2252 27.5181 78.4002 27.4958 78.5632 27.4345C78.7261 27.3733 78.8726 27.2748 78.991 27.1469C79.0066 27.1287 79.0151 27.1055 79.0151 27.0814C79.0151 27.0574 79.0066 27.0342 78.991 27.0159C78.9827 27.0085 78.9729 27.003 78.9623 26.9997C78.9517 26.9964 78.9406 26.9953 78.9295 26.9967C78.9185 26.998 78.9079 27.0017 78.8984 27.0074C78.8889 27.0132 78.8807 27.0209 78.8744 27.03C78.7736 27.1336 78.6507 27.213 78.5149 27.2622C78.3791 27.3115 78.234 27.3292 78.0904 27.3142C78.0665 27.3134 78.0431 27.3214 78.0246 27.3366C78.0061 27.3518 77.9937 27.3732 77.9898 27.3969C77.9837 27.4162 77.9846 27.4372 77.9923 27.4559C78.0001 27.4747 78.0141 27.4902 78.0321 27.4997Z" fill="black"/>
<path d="M74.3832 20.8464C73.7801 22.0557 72.5739 22.4588 70.1614 23.6681C67.8013 24.8512 70.5635 33.5441 67.548 33.7456C66.5428 33.7456 64.5324 23.265 67.1459 19.234C69.1562 17.0169 70.7645 15.8076 74.1821 15.8076C78.0018 15.8076 80.171 16.8335 82.0226 19.0324C83.8741 21.2313 82.0226 24.8774 81.6205 26.0867C80.561 26.3971 79.9639 26.0766 79.4091 24.6758C79.0392 23.7225 74.9039 21.9408 74.3832 20.8464Z" fill="#42210B"/>
<path d="M77.1976 39.7922C77.7323 40.1288 80.1609 40.3122 79.8111 41.2031C79.5376 41.9024 79.6603 43.3012 80.4041 44.1195C80.5852 44.3176 80.8121 44.4681 81.0649 44.5578C81.3176 44.6474 81.5885 44.6734 81.8536 44.6335L83.2287 44.4319C83.2287 44.4319 84.8772 45.6412 85.6612 44.1034C86.4452 42.5655 85.8622 39.8285 85.8622 39.8285L84.837 37.5752C84.837 37.5752 78.8059 32.3348 77.1976 34.1488C76.3934 35.5596 75.5893 38.7845 77.1976 39.7922Z" fill="#42210B"/>
<path d="M71.5688 39.7921C72.1719 39.7921 72.976 34.1487 71.5688 33.7456L64.7517 37.7766C64.5325 38.1797 63.4932 41.6182 63.4932 41.6182L71.5688 39.7921Z" fill="#42210B"/>
</g>
<defs>
<clipPath id="clip0">
<rect width="182" height="137" fill="white"/>
</clipPath>
</defs>
</svg>
